<svg width="20" height="22" viewBox="0 0 20 22" fill="none" xmlns="http://www.w3.org/2000/svg">
<path d="M18.6906 2.98108C18.5988 2.92662 18.494 2.89789 18.3872 2.89789C18.2804 2.89789 18.1756 2.92662 18.0837 2.98108C16.9346 3.6257 15.6267 3.93236 14.3108 3.86568C12.9949 3.79901 11.7246 3.36173 10.6465 2.60426C6.13662 -0.350784 1.52358 1.6642 1.35302 1.75146C1.24827 1.79755 1.15914 1.87305 1.09648 1.96881C1.03381 2.06457 1.0003 2.17647 1 2.29091V20.2195C1 20.3773 1.06268 20.5286 1.17426 20.6402C1.28584 20.7518 1.43718 20.8145 1.59498 20.8145C1.75277 20.8145 1.90411 20.7518 2.01569 20.6402C2.12727 20.5286 2.18995 20.3773 2.18995 20.2195V13.0798C3.25694 12.7268 6.69193 11.8343 10 13.9961C11.2678 14.8815 12.7609 15.3889 14.3057 15.4591C15.8505 15.5293 17.3834 15.1595 18.7263 14.3927C18.8104 14.3392 18.8795 14.2654 18.9274 14.178C18.9752 14.0906 19.0002 13.9926 19 13.8929V3.48879C18.9979 3.38438 18.9681 3.28238 18.9138 3.1932C18.8594 3.10401 18.7824 3.03082 18.6906 2.98108ZM17.81 13.532C16.6783 14.095 15.4159 14.3427 14.1554 14.2492C12.8948 14.1556 11.6828 13.7243 10.6465 13.0005C9.04628 11.9531 7.17254 11.4012 5.26003 11.4139C4.22043 11.4147 3.18639 11.5657 2.18995 11.8621V2.73912C3.27677 2.33454 6.7078 1.45001 10 3.60382C11.1279 4.38678 12.4342 4.87437 13.7993 5.02196C15.1645 5.16956 16.5448 4.97246 17.814 4.44869L17.81 13.532Z" fill="white" stroke="white"/>
</svg>
