<svg width="13" height="21" viewBox="0 0 13 21" fill="none" xmlns="http://www.w3.org/2000/svg">
<path d="M9.659 0H2.841C1.275 0 0 1.275 0 2.841V17.614C0 19.18 1.275 20.455 2.841 20.455H9.659C11.225 20.455 12.5 19.18 12.5 17.614V2.841C12.5 1.274 11.225 0 9.659 0ZM11.364 17.613C11.364 18.553 10.599 19.318 9.659 19.318H2.841C1.901 19.318 1.136 18.553 1.136 17.613V2.841C1.136 1.901 1.901 1.136 2.841 1.136H9.659C10.599 1.136 11.364 1.901 11.364 2.841V17.613Z" fill="black"/>
<path d="M6.25 18.749C6.87739 18.749 7.386 18.2404 7.386 17.613C7.386 16.9856 6.87739 16.477 6.25 16.477C5.6226 16.477 5.114 16.9856 5.114 17.613C5.114 18.2404 5.6226 18.749 6.25 18.749Z" fill="black"/>
</svg>
