<svg width="14" height="23" viewBox="0 0 14 23" fill="none" xmlns="http://www.w3.org/2000/svg">
<path d="M10.8181 0H3.18192C1.428 0 0 1.428 0 3.18192V19.7277C0 21.4816 1.428 22.9096 3.18192 22.9096H10.8181C12.572 22.9096 14 21.4816 14 19.7277V3.18192C14 1.42688 12.572 0 10.8181 0ZM12.7277 19.7266C12.7277 20.7794 11.8709 21.6362 10.8181 21.6362H3.18192C2.12912 21.6362 1.27232 20.7794 1.27232 19.7266V3.18192C1.27232 2.12912 2.12912 1.27232 3.18192 1.27232H10.8181C11.8709 1.27232 12.7277 2.12912 12.7277 3.18192V19.7266Z" fill="#00C300"/>
<path d="M6.99998 20.9989C7.70266 20.9989 8.2723 20.4292 8.2723 19.7265C8.2723 19.0239 7.70266 18.4542 6.99998 18.4542C6.2973 18.4542 5.72766 19.0239 5.72766 19.7265C5.72766 20.4292 6.2973 20.9989 6.99998 20.9989Z" fill="#00C300"/>
</svg>
