<svg width="100" height="100" viewBox="0 0 100 100" fill="none" xmlns="http://www.w3.org/2000/svg">
<path d="M49.531 53.968C64.406 53.968 76.515 41.859 76.515 26.984C76.515 12.109 64.406 0 49.531 0C34.656 0 22.547 12.094 22.547 26.984C22.547 41.874 34.656 53.968 49.531 53.968ZM49.531 7.812C60.109 7.812 68.703 16.4058 68.703 26.984C68.703 37.5622 60.1092 46.156 49.531 46.156C38.9528 46.156 30.359 37.5622 30.359 26.984C30.359 16.4058 38.9528 7.812 49.531 7.812Z" fill="black"/>
<path d="M84.047 61.593H15.016C6.7348 61.593 0 68.3274 0 76.609V99.875H7.8125V76.609C7.8125 72.6402 11.0469 69.4059 15.0156 69.4059H84.0466C88.0154 69.4059 91.2497 72.6403 91.2497 76.609V99.875H99.0622V76.609C99.0622 68.3278 92.3286 61.593 84.047 61.593Z" fill="black"/>
</svg>
